<?xml version="1.0" encoding="utf-8"?>
<!-- Generator: Adobe Illustrator 26.0.1, SVG Export Plug-In . SVG Version: 6.00 Build 0)  -->
<svg version="1.1" id="Layer_1" xmlns="http://www.w3.org/2000/svg" xmlns:xlink="http://www.w3.org/1999/xlink" x="0px" y="0px"
	 viewBox="0 0 3206 1475" style="enable-background:new 0 0 3206 1475;" xml:space="preserve">
<style type="text/css">
	.st0{fill:#0050A0;}
	.st1{fill:#FFFFFF;}
</style>
<g id="d-04">
</g>
<g id="d-03">
</g>
<g id="d-02">
</g>
<g id="d-01">
</g>
<g id="c-04">
</g>
<g id="c-03">
</g>
<g id="c-02">
</g>
<g id="c-01">
</g>
<g id="b-04">
</g>
<g id="b-03">
	<g>
		<path id="lasche_00000020374250034972382700000004333531585316392869_" class="st0" d="M3013.63989,1474.75989H192.04779
			C86.42151,1474.75989,0,1388.3385,0,1282.71228V0h3206v1282.40002C3206,1388.19812,3119.43799,1474.75989,3013.63989,1474.75989z"
			/>
		<path class="st1" d="M562.94342,1119.53625h-22.37701c-12.48828,0-18.73242,4.10352-18.73242,12.30713
			c0,3.92822,1.56152,7.04883,4.68158,9.35938c3.12402,2.31348,7.45898,3.46582,13.00983,3.46582
			c5.43652,0,10.2627-1.24023,14.48633-3.72607c4.21973-2.4834,7.19733-6.03662,8.93158-10.66064v-10.74561 M1360.06934,1119.53625
			h-22.37988c-12.48828,0-18.7334,4.10352-18.7334,12.30713c0,3.92822,1.5625,7.04883,4.68262,9.35938
			c3.12402,2.31348,7.46094,3.46582,13.0127,3.46582c5.43359,0,10.25977-1.24023,14.48242-3.72607
			c4.2207-2.4834,7.20117-6.03662,8.93555-10.66064V1119.53625 M1930.98828,1119.53625h-22.37695
			c-12.48828,0-18.73535,4.10352-18.73535,12.30713c0,3.92822,1.56152,7.04883,4.68555,9.35938
			c3.12305,2.31348,7.45801,3.46582,13.00879,3.46582c5.43457,0,10.2627-1.24023,14.48633-3.72607
			c4.2207-2.4834,7.19727-6.03662,8.93164-10.66064V1119.53625 M2716.22266,1119.53625h-22.37402
			c-12.49121,0-18.73633,4.10352-18.73633,12.30713c0,3.92822,1.5625,7.04883,4.68262,9.35938
			c3.12402,2.31348,7.45801,3.46582,13.00977,3.46582c5.43652,0,10.2627-1.24023,14.48535-3.72607
			c4.2207-2.4834,7.19824-6.03662,8.93262-10.66064V1119.53625 M2116.47168,1103.41516
			c-6.9375,3.81396-11.8252,7.48438-14.65625,11.00879c-2.83691,3.52441-4.25,7.48145-4.25,11.87158
			c0,5.08594,2.25293,9.18652,6.76562,12.30713c4.50977,3.12061,10.46387,4.67969,17.86426,4.67969
			c10.06348,0,18.84961-3.05957,26.36914-9.18652L2116.47168,1103.41516 M1054.75195,1084.00403
			c-8.32617,0-15.12012,2.42725-20.38184,7.27979c-5.26465,4.85205-7.8916,11.15186-7.8916,18.89355
			c0,7.8584,2.62695,14.24023,7.8916,19.15088c5.26172,4.91357,12.05566,7.36768,20.38184,7.36768
			c8.20996,0,14.94531-2.4541,20.20996-7.36768c5.26172-4.91064,7.89355-11.29248,7.89355-19.15088
			c0-7.7417-2.63184-14.0415-7.89355-18.89355C1069.69727,1086.43127,1062.96191,1084.00403,1054.75195,1084.00403
			 M1692.71777,1084.00403c-7.97852,0-14.54492,2.65869-19.68945,7.97266c-5.14453,5.31738-7.71777,12.30713-7.71777,20.97314
			s2.57324,15.65918,7.71777,20.97021c5.14453,5.32031,11.71094,7.97559,19.68945,7.97559
			c7.98145,0,14.57129-2.65527,19.77441-7.97559c5.20605-5.31104,7.80859-12.3042,7.80859-20.97021
			s-2.60254-15.65576-7.80859-20.97314C1707.28906,1086.66272,1700.69922,1084.00403,1692.71777,1084.00403 M2283.84668,1084.00403
			c-5.20312,0-9.88574,1.1875-14.0498,3.55371c-4.16211,2.36865-7.45801,5.75-9.88867,10.13965
			c-2.42773,4.39307-3.6416,9.47607-3.6416,15.25244c0,5.7793,1.21387,10.8623,3.6416,15.25244
			c2.43066,4.39307,5.72656,7.77393,9.88867,10.14014c4.16406,2.36914,8.84668,3.55322,14.0498,3.55322
			c5.20605,0,9.88867-1.18408,14.05078-3.55322c4.16504-2.36621,7.46094-5.74707,9.88867-10.14014
			c2.42969-4.39014,3.64355-9.47314,3.64355-15.25244c0-5.77637-1.21387-10.85938-3.64355-15.25244
			c-2.42773-4.38965-5.72363-7.771-9.88867-10.13965C2293.73535,1085.19153,2289.05273,1084.00403,2283.84668,1084.00403
			 M2455.41992,1084.00403c-8.32422,0-15.12109,2.42725-20.37988,7.27979c-5.26465,4.85205-7.89355,11.15186-7.89355,18.89355
			c0,7.8584,2.62891,14.24023,7.89355,19.15088c5.25879,4.91357,12.05566,7.36768,20.37988,7.36768
			c8.21191,0,14.94531-2.4541,20.20996-7.36768c5.26074-4.91064,7.89355-11.29248,7.89355-19.15088
			c0-7.7417-2.63281-14.0415-7.89355-18.89355C2470.36523,1086.43127,2463.63184,1084.00403,2455.41992,1084.00403
			 M416.05573,1056.96497h-29.49017v83.19629h29.49017c8.90228,0,16.73828-1.70215,23.50287-5.1123
			c6.76459-3.40723,11.9707-8.25928,15.6123-14.55908c3.64362-6.29688,5.46582-13.60596,5.46582-21.92676
			s-1.82233-15.62646-5.46582-21.92627c-3.6416-6.29688-8.84772-11.14941-15.6123-14.55957
			C432.79388,1058.67004,424.95801,1056.96497,416.05573,1056.96497 M798.2666,1055.92395
			c-8.0957,0-15.38184,1.81885-21.85645,5.46045c-6.47852,3.64111-11.56445,8.72705-15.26465,15.25244
			c-3.70215,6.53076-5.55078,13.83936-5.55078,21.92627c0,8.08984,1.84863,15.39893,5.55078,21.92676
			c3.7002,6.52783,8.78613,11.61426,15.26465,15.25244c6.47461,3.64111,13.76074,5.46045,21.85645,5.46045
			c8.09473,0,15.38086-1.81934,21.85938-5.46045c6.47461-3.63818,11.56055-8.72461,15.26367-15.25244
			c3.7002-6.52783,5.55078-13.83691,5.55078-21.92676c0-8.08691-1.85059-15.39551-5.55078-21.92627
			c-3.70312-6.52539-8.78906-11.61133-15.26367-15.25244C813.64746,1057.7428,806.36133,1055.92395,798.2666,1055.92395
			 M2126.1875,1051.93762c-4.74414,0-8.5,1.18701-11.27539,3.55322c-2.77832,2.36914-4.16406,5.46045-4.16406,9.27441
			c0,2.77246,0.75098,5.40186,2.25488,7.88477c1.5,2.48633,4.39258,5.86719,8.67383,10.14014
			c6.9375-3.81396,11.7666-7.1333,14.4834-9.96436c2.71777-2.83105,4.07715-5.92285,4.07715-9.27441
			c0-3.57959-1.24316-6.41406-3.72852-8.49316C2134.01953,1052.97864,2130.58008,1051.93762,2126.1875,1051.93762
			 M2823.58887,816.07043h-8.06055v14.51855h8.06055c2.93066,0,5.20312-0.6377,6.82031-1.91553
			c1.61719-1.28125,2.4248-3.07422,2.4248-5.39062c0-2.31055-0.80762-4.09131-2.4248-5.34033
			C2828.79199,816.69641,2826.51953,816.07043,2823.58887,816.07043 M2809.39551,847.39417v-36.5293h14.64941
			c4.58008,0,8.19531,1.12891,10.85059,3.38086c2.65625,2.25195,3.9834,5.26465,3.9834,9.03711
			c0,2.74072-0.6748,5.08643-2.01465,7.03418c-1.34277,1.94775-3.2373,3.34863-5.67676,4.19971l8.33203,12.87744h-6.31738
			l-7.60156-11.68994h-1.55566h-8.42285v11.68994H2809.39551 M2822.48926,801.00256c-5.25,0-10.02637,1.24902-14.32812,3.74365
			c-4.30566,2.49756-7.67773,5.89014-10.12012,10.18066c-2.43848,4.29395-3.66113,9.02881-3.66113,14.20264
			s1.22266,9.90918,3.66113,14.19971c2.44238,4.29053,5.7998,7.68604,10.07324,10.18359
			c4.27246,2.49463,9.00488,3.74365,14.19336,3.74365c5.24707,0,10.00879-1.24902,14.28418-3.74365
			c4.27051-2.49756,7.64258-5.90479,10.11426-10.22754c2.47363-4.32275,3.70801-9.10205,3.70801-14.33984
			c0-5.23242-1.20508-9.98242-3.61426-14.24365c-2.41309-4.26123-5.74121-7.60986-9.97949-10.04639
			C2832.57324,802.21936,2827.80078,801.00256,2822.48926,801.00256 M1509.22949,543.24719
			c-3.83105,0.0498-7.83203,1.32178-11.87695,3.65869c-3.41309,2.05615-6.39941,4.68555-8.74512,7.08984
			c-14.83398,15.20557-25.16113,42.25049-24.55566,64.30566c0.2373,8.55176,3.1123,28.43701,24.67285,28.43701
			c14.24023,0,24.61133-5.5835,31.71582-17.06885c6.42285-10.38867,9.96094-25.11426,9.96094-41.46338l0.00879-1.22852
			c0.21094-25.66748-5.97461-35.75488-9.68066-39.48389C1518.76758,545.52551,1515.6875,543.2677,1509.22949,543.24719
			 M2570.63281,543.24426c-0.7168,0-1.44141,0.06152-2.16699,0.14648c-0.19336,0.02295-0.38574,0.04346-0.57617,0.07275
			c-0.62891,0.09082-1.25781,0.2168-1.88965,0.37158c-0.42969,0.10547-0.85352,0.22803-1.27539,0.36279l-0.24219,0.07568
			c-5.77344,1.89258-10.81543,6.06592-14.38086,9.72217c-14.83398,15.20557-25.16113,42.25049-24.55566,64.30566
			c0.23633,8.55176,3.11133,28.43701,24.67285,28.43701c14.24023,0,24.61426-5.5835,31.71582-17.06885
			c6.4248-10.38867,9.96387-25.11426,9.96387-41.46338l0.00586-1.22852c0.21387-25.66748-5.97461-35.75488-9.68066-39.48389
			C2580.25488,545.51379,2577.1582,543.24426,2570.63281,543.24426 M856.37988,339.95032
			c-21.71289,4.45703-50.10254,58.52051-67.94922,199.15234c-0.52344,4.15039-1.03027,8.29492-1.52148,12.44482
			c19.29492-38.69971,36.50391-78.9292,49.34863-115.75146C857.14648,375.93274,858.22559,348.47864,856.37988,339.95032
			 M2272.62793,339.84778c-18.30859,3.53613-42.95801,53.68018-56.50879,146.43457
			c-2.68164,18.34375-4.76465,37.375-6.22656,56.40039c20.02832-44.19238,37.27246-87.75049,48.51855-123.20361
			C2275.85059,364.52063,2273.9873,345.22913,2272.62793,339.84778 M1373.04883,339.64612
			c-6.63574,0-15.36035,9.82959-23.3418,26.29297c-16.60352,34.25439-30.29102,97.91064-37.35449,171.57568
			c34.93848-72.29004,57.99707-134.4375,63.2002-171.41162c2.80176-19.90869-0.51465-25.55615-1.05859-26.31982
			C1374.29785,339.73059,1373.85059,339.64612,1373.04883,339.64612 M1890.18848,339.64612
			c-1.37109,0-33.84766,2.0415-61.17578,179.75293c-0.68164,4.41943-1.34277,8.85889-1.98633,13.29883
			c2.17871-3.85205,4.40527-7.87061,6.6748-12.06152c28.85449-53.26514,51.20605-109.20605,58.33008-145.99609
			c5.49609-28.36963,0.12891-34.65479,0.01172-34.7749C1892.02832,339.86536,1891.51367,339.64612,1890.18848,339.64612
			 M2465.16504,339.64612c-1.49219,0-35.43359,2.57959-80.70801,214.56006c13.52441-23.43311,26.33105-47.48291,37.68848-70.93604
			c18.31738-37.82275,31.84961-71.87207,39.1377-98.46924c8.95312-32.67822,5.44922-43.13086,4.50195-45.12842
			C2465.62402,339.65491,2465.41895,339.64612,2465.16504,339.64612 M1471.60352,1160.44153
			c-3.93359,0-7.28613-1.35693-10.06152-4.07422c-2.77539-2.71094-4.16113-6.15088-4.16113-10.3125
			c0-4.27295,1.35645-7.73877,4.07617-10.40039c2.71484-2.65576,6.09863-3.98633,10.14648-3.98633s7.42871,1.33057,10.14844,3.98633
			c2.7168,2.66162,4.07715,6.12744,4.07715,10.40039c0,4.16162-1.38965,7.60156-4.16504,10.3125
			C1478.88867,1159.08459,1475.53418,1160.44153,1471.60352,1160.44153 M2827.75977,1160.44153
			c-3.93359,0-7.28613-1.35693-10.06152-4.07422c-2.77539-2.71094-4.16211-6.15088-4.16211-10.3125
			c0-4.27295,1.35742-7.73877,4.07715-10.40039c2.71484-2.65576,6.09863-3.98633,10.14648-3.98633s7.42871,1.33057,10.14844,3.98633
			c2.7168,2.66162,4.07715,6.12744,4.07715,10.40039c0,4.16162-1.38965,7.60156-4.16504,10.3125
			C2835.04492,1159.08459,2831.69043,1160.44153,2827.75977,1160.44153 M961.08496,1159.22766V1066.672h21.68359v92.55566H961.08496
			 M1133.26074,1159.22766V1066.672h21.68359v92.55566H1133.26074 M2361.75,1159.22766V1066.672h21.68359v92.55566H2361.75
			 M2533.93066,1159.22766V1066.672h21.68359v92.55566H2533.93066 M511.77252,1092.84241l-8.49902-15.77295
			c4.85449-3.69678,10.69238-6.5249,17.51862-8.49316c6.82129-1.96289,14.05078-2.94531,21.68457-2.94531
			c13.64362,0,24.08203,3.26709,31.30859,9.79199c7.22748,6.53076,10.8418,16.38135,10.8418,29.5542v54.25049h-20.4668v-11.26611
			c-2.66412,4.04492-6.44922,7.13623-11.3623,9.27441c-4.91699,2.13525-10.8418,3.20557-17.78223,3.20557
			c-6.9375,0-13.00983-1.1875-18.21289-3.55371c-5.20312-2.36572-9.22461-5.65918-12.05573-9.87939
			c-2.83691-4.21777-4.25201-8.98193-4.25201-14.29932c0-8.3208,3.09381-14.9917,9.2832-20.01953
			c6.18262-5.02734,15.92767-7.54004,29.22662-7.54004h23.93848v-1.38623c0-6.46924-1.93652-11.43848-5.80859-14.90723
			c-3.87793-3.46582-9.62793-5.2002-17.26172-5.2002c-5.20312,0-10.32129,0.81006-15.35162,2.42773
			C519.49121,1087.70374,515.24121,1089.95569,511.77252,1092.84241 M644.99609,1142.76135
			c12.94818,0,19.42682-3.40723,19.42682-10.22461c0-3.23486-1.64752-5.48682-4.94342-6.76172
			c-3.2959-1.26953-8.58691-2.4834-15.875-3.63867c-7.63092-1.15527-13.84857-2.48291-18.64551-3.98633
			c-4.80182-1.50049-8.96393-4.12988-12.48828-7.8877c-3.53027-3.75244-5.29388-8.98193-5.29388-15.68555
			c0-8.77979,3.6709-15.79932,11.01758-21.06104c7.34082-5.25537,17.25879-7.88477,29.75-7.88477
			c6.3584,0,12.7168,0.72217,19.08112,2.16699c6.3584,1.44482,11.56152,3.37842,15.60938,5.80566l-8.32422,16.46631
			c-7.86432-4.62109-16.71478-6.93164-26.54199-6.93164c-6.36041,0-11.18652,0.95361-14.48242,2.85742
			c-3.29688,1.90674-4.94629,4.42236-4.94629,7.54004c0,3.46582,1.76367,5.92529,5.29102,7.36719
			c3.52728,1.44482,8.99323,2.80176,16.39362,4.07422c7.39941,1.15527,13.4707,2.48584,18.21478,3.98633
			c4.73828,1.50342,8.81543,4.04492,12.22852,7.625c3.41022,3.58252,5.11823,8.66846,5.11823,15.25488
			c0,8.66602-3.76172,15.59766-11.27539,20.79785c-7.51947,5.2002-17.75287,7.80029-30.70612,7.80029
			c-7.5166,0-14.86041-0.98291-22.0293-2.94531c-7.1709-1.96533-12.89447-4.44824-17.17383-7.45508l8.32617-16.46631
			c4.16498,2.77295,9.16412,5.00146,15.00677,6.67432C633.57233,1141.92493,639.3252,1142.76135,644.99609,1142.76135
			 M909.14551,1080.19006c6.24707-9.70703,17.23242-14.55908,32.96094-14.55908v20.625
			c-1.85156-0.34521-3.53027-0.51758-5.03027-0.51758c-8.44336,0-15.03613,2.45361-19.77734,7.36426
			c-4.74316,4.91357-7.1123,11.9917-7.1123,21.2334v44.8916h-21.68066V1066.672h20.63965V1080.19006 M1051.45898,1155.06897
			c-8.79199,0-16.74121-1.87793-23.85449-5.6333c-7.10938-3.75537-12.72168-9.04004-16.8252-15.86084
			c-4.10645-6.81738-6.16016-14.61475-6.16016-23.39746c0-8.78027,2.05371-16.5542,6.16016-23.31299
			c4.10352-6.76172,9.71582-11.98828,16.8252-15.68799c7.11328-3.69727,15.0625-5.54541,23.85449-5.54541
			c6.70312,0,12.80469,1.09961,18.2998,3.29297c5.49023,2.19678,10.08789,5.54541,13.79004,10.05225v-12.3042h20.64258v78.51709
			c0,32.58447-16.65332,48.87793-49.95703,48.87793c-8.9082,0-17.34961-1.12598-25.32812-3.37793
			c-7.97852-2.25537-14.57324-5.52197-19.77344-9.79492l9.71289-16.29395c4.04785,3.35205,9.16309,6.03662,15.35156,8.06055
			c6.18555,2.021,12.45898,3.0332,18.82031,3.0332c10.17578,0,17.63379-2.31055,22.37695-6.93164
			c4.74121-4.62402,7.11328-11.66943,7.11328-21.14551v-4.85547c-3.7002,4.04785-8.21289,7.10742-13.53027,9.18652
			C1063.65527,1154.02747,1057.81445,1155.06897,1051.45898,1155.06897 M1204.76367,1078.63147
			c3.58008-4.27588,8.09277-7.51074,13.53027-9.70752c5.43359-2.19336,11.56348-3.29297,18.3877-3.29297
			c11.67773,0,21.0459,3.41016,28.10059,10.22754c7.05371,6.81787,10.58105,16.92822,10.58105,30.33252v53.03662h-21.68359
			v-50.26416c0-8.08691-1.90723-14.18506-5.72363-18.28516c-3.81641-4.10059-9.25391-6.15381-16.30566-6.15381
			c-7.97852,0-14.28418,2.39844-18.9082,7.19189c-4.62695,4.79639-6.9375,11.69873-6.9375,20.71289v46.79834h-21.68359V1066.672
			h20.64258V1078.63147 M1308.89551,1092.84241l-8.49902-15.77295c4.85449-3.69678,10.69531-6.5249,17.51855-8.49316
			c6.82324-1.96289,14.05078-2.94531,21.68457-2.94531c13.64355,0,24.08203,3.26709,31.31152,9.79199
			c7.22363,6.53076,10.8418,16.38135,10.8418,29.5542v54.25049h-20.46973v-11.26611
			c-2.66504,4.04492-6.44922,7.13623-11.3623,9.27441c-4.91699,2.13525-10.84277,3.20557-17.78027,3.20557
			c-6.93945,0-13.01172-1.1875-18.21484-3.55371c-5.20312-2.36572-9.22461-5.65918-12.05566-9.87939
			c-2.83398-4.21777-4.24902-8.98193-4.24902-14.29932c0-8.3208,3.09082-14.9917,9.2793-20.01953
			c6.18652-5.02734,15.92871-7.54004,29.23047-7.54004h23.93848v-1.38623c0-6.46924-1.93945-11.43848-5.81152-14.90723
			c-3.87793-3.46582-9.62793-5.2002-17.26172-5.2002c-5.20312,0-10.32129,0.81006-15.35156,2.42773
			C1316.61426,1087.70374,1312.36426,1089.95569,1308.89551,1092.84241 M1692.71777,1160.44153
			c-9.36816,0-17.80859-2.021-25.3252-6.06592c-7.51953-4.04492-13.38672-9.67773-17.60645-16.89893
			c-4.22363-7.22119-6.33203-15.39893-6.33203-24.52686s2.1084-17.27344,6.33203-24.43896
			c4.21973-7.16553,10.08691-12.76611,17.60645-16.81396c7.5166-4.04199,15.95703-6.06592,25.3252-6.06592
			c9.48145,0,17.98145,2.02393,25.50098,6.06592c7.5166,4.04785,13.38281,9.64844,17.60645,16.81396
			c4.2207,7.16553,6.33203,15.31104,6.33203,24.43896s-2.11133,17.30566-6.33203,24.52686
			c-4.22363,7.22119-10.08984,12.854-17.60645,16.89893C1710.69922,1158.42053,1702.19922,1160.44153,1692.71777,1160.44153
			 M1879.81445,1092.84241l-8.49902-15.77295c4.8584-3.69678,10.69629-6.5249,17.52246-8.49316
			c6.82031-1.96289,14.0498-2.94531,21.68359-2.94531c13.64355,0,24.0791,3.26709,31.30859,9.79199
			c7.22754,6.53076,10.84277,16.38135,10.84277,29.5542v54.25049h-20.46777v-11.26611
			c-2.66406,4.04492-6.44922,7.13623-11.36523,9.27441c-4.91602,2.13525-10.8418,3.20557-17.7793,3.20557
			s-13.00879-1.1875-18.21191-3.55371c-5.20605-2.36572-9.22461-5.65918-12.05859-9.87939
			c-2.83398-4.21777-4.25-8.98193-4.25-14.29932c0-8.3208,3.09473-14.9917,9.28027-20.01953
			c6.18555-5.02734,15.93066-7.54004,29.22949-7.54004h23.93848v-1.38623c0-6.46924-1.93848-11.43848-5.81152-14.90723
			c-3.875-3.46582-9.62793-5.2002-17.25879-5.2002c-5.20508,0-10.32129,0.81006-15.35156,2.42773
			C1887.53613,1087.70374,1883.28613,1089.95569,1879.81445,1092.84241 M2452.12598,1155.06897
			c-8.79102,0-16.74023-1.87793-23.85352-5.6333c-7.11035-3.75537-12.72266-9.04004-16.82617-15.86084
			c-4.10645-6.81738-6.15625-14.61475-6.15625-23.39746c0-8.78027,2.0498-16.5542,6.15625-23.31299
			c4.10352-6.76172,9.71582-11.98828,16.82617-15.68799c7.11328-3.69727,15.0625-5.54541,23.85352-5.54541
			c6.7041,0,12.80469,1.09961,18.30078,3.29297c5.49219,2.19678,10.08691,5.54541,13.79004,10.05225v-12.3042h20.64258v78.51709
			c0,32.58447-16.65332,48.87793-49.95996,48.87793c-8.90625,0-17.34375-1.12598-25.3252-3.37793
			c-7.97852-2.25537-14.57129-5.52197-19.77441-9.79492l9.71289-16.29395c4.04785,3.35205,9.16602,6.03662,15.35156,8.06055
			c6.18652,2.021,12.45996,3.0332,18.82129,3.0332c10.1748,0,17.63574-2.31055,22.37988-6.93164
			c4.73828-4.62402,7.10938-11.66943,7.10938-21.14551v-4.85547c-3.70215,4.04785-8.21191,7.10742-13.5293,9.18652
			C2464.3252,1154.02747,2458.48438,1155.06897,2452.12598,1155.06897 M2665.05176,1092.84241l-8.49902-15.77295
			c4.85449-3.69678,10.69238-6.5249,17.51855-8.49316c6.82031-1.96289,14.05078-2.94531,21.68359-2.94531
			c13.64453,0,24.08008,3.26709,31.30957,9.79199c7.22656,6.53076,10.8418,16.38135,10.8418,29.5542v54.25049h-20.4668v-11.26611
			c-2.66504,4.04492-6.44922,7.13623-11.36328,9.27441c-4.91602,2.13525-10.8418,3.20557-17.7793,3.20557
			c-6.93945,0-13.01172-1.1875-18.21484-3.55371c-5.20605-2.36572-9.22461-5.65918-12.05859-9.87939
			c-2.83105-4.21777-4.24707-8.98193-4.24707-14.29932c0-8.3208,3.0918-14.9917,9.28027-20.01953
			c6.18359-5.02734,15.92871-7.54004,29.22949-7.54004h23.93652v-1.38623c0-6.46924-1.93652-11.43848-5.80859-14.90723
			c-3.87793-3.46582-9.62793-5.2002-17.26172-5.2002c-5.20312,0-10.32129,0.81006-15.35156,2.42773
			C2672.76953,1087.70374,2668.52051,1089.95569,2665.05176,1092.84241 M2573.16602,1084.69739v-17.33203h15.2666v-21.14893
			h21.68359v21.14893h24.80469v17.33203h-24.80469v44.02539c0,4.50732,1.09473,7.94678,3.29395,10.3125
			c2.19629,2.36914,5.37793,3.55371,9.54297,3.55371c4.85547,0,8.90039-1.26953,12.14062-3.81396l6.07129,15.42822
			c-2.54688,2.0791-5.63867,3.63818-9.2793,4.6792c-3.64453,1.03857-7.49023,1.55908-11.53516,1.55908
			c-10.17871,0-18.04297-2.65576-23.59375-7.97266c-5.55176-5.31445-8.32422-13.05615-8.32422-23.22559v-44.5459H2573.16602
			 M364.0127,1159.22766v-121.3291h53.08112c12.9502,0,24.45898,2.5127,34.52051,7.54004
			c10.06049,5.02783,17.87012,12.13184,23.4209,21.31836s8.32422,19.78857,8.32422,31.80615
			c0,12.02051-2.77338,22.62012-8.32422,31.80664s-13.36041,16.29346-23.4209,21.31787
			c-10.06152,5.02783-21.57031,7.54004-34.52051,7.54004H364.0127 M1546.12207,1159.22766v-121.3291h22.5498v102.2627h63.48926
			v19.06641H1546.12207 M2120.63574,1160.96204c-8.44336,0-16.01855-1.38623-22.72461-4.15869
			c-6.70898-2.77588-11.9707-6.61572-15.78516-11.52637c-3.81641-4.91064-5.72363-10.48828-5.72363-16.72656
			c0-7.51074,2.19336-14.12646,6.58984-19.84717c4.39551-5.7207,11.56445-11.354,21.51074-16.89893
			c-4.85742-4.85498-8.32617-9.38867-10.40918-13.60596c-2.0791-4.21729-3.12012-8.58105-3.12012-13.08789
			c0-8.54932,3.20801-15.45459,9.625-20.71289c6.41992-5.25586,14.94531-7.88525,25.58887-7.88525
			c9.82715,0,17.69141,2.39844,23.59082,7.19189c5.89844,4.79688,8.84668,11.29834,8.84668,19.49902
			c0,6.2417-1.93848,11.78662-5.81152,16.6416c-3.875,4.85254-10.20703,9.76562-18.99609,14.73193l26.19434,24.95947
			c2.88965-5.65918,5.14453-12.47949,6.76465-20.45264l17.52246,5.72119c-2.31641,10.74512-5.95801,19.99023-10.92969,27.73193
			l15.2666,14.55908l-11.9707,14.03857l-15.26465-14.73145C2150.06445,1156.10999,2136.47656,1160.96204,2120.63574,1160.96204
			 M798.2666,1160.96204c-12.375,0-23.53223-2.68799-33.47949-8.06055c-9.94434-5.37256-17.75293-12.82471-23.41797-22.35938
			c-5.66602-9.53174-8.5-20.19238-8.5-31.979s2.83398-22.44727,8.5-31.97852c5.66504-9.53467,13.47363-16.98682,23.41797-22.35986
			c9.94727-5.37549,21.10449-8.06055,33.47949-8.06055c12.37402,0,23.53223,2.68506,33.48145,8.06055
			c9.94434,5.37305,17.75,12.79883,23.41602,22.27197c5.66504,9.47607,8.50195,20.16602,8.50195,32.06641
			c0,11.90381-2.83691,22.59375-8.50195,32.06689c-5.66602,9.47607-13.47168,16.89893-23.41602,22.27148
			C821.79883,1158.27405,810.64062,1160.96204,798.2666,1160.96204 M1410.32129,1159.22766v-128.6084h21.68164v128.6084H1410.32129
			 M1764.70703,1159.22766v-128.6084h21.68359v77.64795l44.92676-41.59521h26.02148l-38.68555,38.82275l42.32617,53.73291h-26.36621
			l-32.09277-39.69141l-16.12988,15.25244v24.43896H1764.70703 M1981.24121,1159.22766v-128.6084h21.68359v128.6084H1981.24121
			 M2311.08203,1078.11047v-47.49121h21.68359v128.6084h-20.81543v-11.95898c-3.58789,4.39258-8.01074,7.68604-13.26953,9.87939
			c-5.26367,2.19385-11.0752,3.29346-17.43359,3.29346c-8.90918,0-16.91406-1.9624-24.02637-5.89355
			c-7.11328-3.92773-12.69336-9.50244-16.74121-16.72607c-4.04785-7.21826-6.06934-15.5127-6.06934-24.87207
			c0-9.35889,2.02148-17.62109,6.06934-24.78711c4.04785-7.1626,9.62793-12.70752,16.74121-16.63867
			c7.1123-3.92773,15.11719-5.89307,24.02637-5.89307c6.12695,0,11.7334,1.04102,16.82617,3.12061
			C2303.15918,1070.83118,2307.49609,1073.95178,2311.08203,1078.11047 M2766.47754,1159.22766v-128.6084h21.68164v128.6084
			H2766.47754 M972.01172,1051.41663c-3.93359,0-7.22949-1.23975-9.88867-3.72607c-2.66113-2.48291-3.98926-5.57129-3.98926-9.27393
			c0-3.69434,1.32812-6.78564,3.98926-9.27148c2.65918-2.48291,5.95508-3.72607,9.88867-3.72607
			c3.93066,0,7.22754,1.18457,9.88867,3.55322c2.6582,2.36914,3.98926,5.34668,3.98926,8.92627
			c0,3.81396-1.30176,7.01953-3.9043,9.61963C979.38184,1050.11829,976.05664,1051.41663,972.01172,1051.41663
			 M1144.19043,1051.41663c-3.93164,0-7.22754-1.23975-9.88867-3.72607c-2.65918-2.48291-3.98926-5.57129-3.98926-9.27393
			c0-3.69434,1.33008-6.78564,3.98926-9.27148c2.66113-2.48291,5.95703-3.72607,9.88867-3.72607
			c3.93066,0,7.22656,1.18457,9.8877,3.55322c2.65918,2.36914,3.98926,5.34668,3.98926,8.92627
			c0,3.81396-1.30078,7.01953-3.90137,9.61963C1151.56348,1050.11829,1148.23828,1051.41663,1144.19043,1051.41663
			 M2372.67969,1051.41663c-3.93359,0-7.23047-1.23975-9.88867-3.72607c-2.66113-2.48291-3.98926-5.57129-3.98926-9.27393
			c0-3.69434,1.32812-6.78564,3.98926-9.27148c2.6582-2.48291,5.95508-3.72607,9.88867-3.72607
			c3.93066,0,7.22363,1.18457,9.8877,3.55322c2.65918,2.36914,3.99023,5.34668,3.99023,8.92627
			c0,3.81396-1.30176,7.01953-3.90234,9.61963C2380.05273,1050.11829,2376.72461,1051.41663,2372.67969,1051.41663
			 M2544.85742,1051.41663c-3.93066,0-7.22949-1.23975-9.88574-3.72607c-2.66406-2.48291-3.98926-5.57129-3.98926-9.27393
			c0-3.69434,1.3252-6.78564,3.98926-9.27148c2.65625-2.48291,5.95508-3.72607,9.88574-3.72607s7.22656,1.18457,9.88867,3.55322
			c2.66113,2.36914,3.98926,5.34668,3.98926,8.92627c0,3.81396-1.29883,7.01953-3.9043,9.61963
			C2552.23047,1050.11829,2548.90527,1051.41663,2544.85742,1051.41663 M318.36133,846.94397
			c-7.9873,0-14.46002-6.45459-14.46002-14.42188c0-7.96387,6.47272-14.42188,14.46002-14.42188h1939.26855
			c7.98438,0,14.45703,6.45801,14.45703,14.42188c0,7.96729-6.47266,14.42188-14.45703,14.42188H318.36133 M2383.50977,846.94397
			c-7.98438,0-14.45703-6.45752-14.45703-14.42188c0-7.96387,6.47266-14.42188,14.45703-14.42188h330.0166
			c7.98438,0,14.45898,6.45801,14.45898,14.42188c0,7.96436-6.47461,14.42188-14.45898,14.42188H2383.50977 M2822.30762,861.36584
			c-5.98633,0-11.43262-1.43018-16.3457-4.29346c-4.91406-2.86035-8.78906-6.75635-11.62891-11.6875
			c-2.83691-4.93359-4.25586-10.35059-4.25586-16.25537s1.41895-11.32471,4.25586-16.25537
			c2.83984-4.93115,6.73242-8.82715,11.67578-11.69043c4.94238-2.86035,10.4375-4.29053,16.48047-4.29053
			c6.04492,0,11.52051,1.40088,16.43652,4.2002c4.91113,2.80176,8.77148,6.65332,11.5791,11.55225
			c2.81055,4.90186,4.21484,10.33594,4.21484,16.2998c0,5.96924-1.43652,11.43262-4.30566,16.39307
			c-2.86914,4.96289-6.77344,8.87354-11.71875,11.73389C2833.75195,859.93567,2828.28906,861.36584,2822.30762,861.36584
			 M2732.07715,790.4303c-6.25977,0-12.41895-4.23389-13.54395-11.521l-6.46973-41.92871
			c-0.32617-2.11084,1.33594-3.9126,3.35156-3.9126c0.2627,0,0.53223,0.03076,0.80469,0.0957l49.69336,11.90088
			c2.35156,0.56152,3.38086,3.32227,1.96582,5.28174l-24.84863,34.42969
			C2740.23145,788.65295,2736.13281,790.4303,2732.07715,790.4303 M2094.44238,505.71252c-1.36719,0-2.73633-0.16992-4.0918-0.52148
			c-11.55566-2.99805-17.7207-18.11279-13.77246-33.75439c3.48535-13.80566,13.68652-23.40967,23.97559-23.41064
			c1.36816,0,2.7373,0.16943,4.09277,0.52197c11.55566,2.99756,17.7207,18.10986,13.77246,33.75098
			C2114.93359,496.10559,2104.7334,505.71252,2094.44238,505.71252 M1169.65918,498.96838
			c-1.36816,0-2.73633-0.16992-4.09277-0.52197c-11.55566-2.99805-17.7207-18.10986-13.77246-33.75146
			c3.48535-13.80713,13.68555-23.41211,23.97852-23.4126c1.36719,0,2.73535,0.16943,4.09082,0.521
			c11.55469,3.00098,17.7207,18.11279,13.77246,33.75439C1190.15039,489.36292,1179.94922,498.96838,1169.65918,498.96838
			 M1088.53418,498.25159c-1.36816,0-2.7373-0.16943-4.09277-0.52197c-11.55566-2.99756-17.71875-18.10938-13.77246-33.75098
			c3.4873-13.80762,13.6875-23.41211,23.97852-23.4126c1.36719,0,2.73535,0.16943,4.08984,0.521
			c11.55566,3.00049,17.7207,18.11279,13.77246,33.75391C1109.02441,488.64661,1098.82617,498.25159,1088.53418,498.25159
			 M2772.27441,729.04602c-0.25488,0-0.51367-0.0293-0.77148-0.09082l-52.93164-12.67578
			c-1.8252-0.43896-2.93945-2.3252-2.5127-4.0918l90.54102-376.15088c2.19043-9.09766,10.6748-15.59131,19.96484-15.5918
			c1.53613,0,3.09375,0.17725,4.64941,0.55029l19.84961,4.75244c10.96484,2.62646,17.63574,13.94824,15.08594,24.55029
			l-90.54395,376.14746C2775.23926,727.96252,2773.82422,729.04602,2772.27441,729.04602 M434.03607,734.11731
			c37.68848,0,78.25098-28.6709,78.25098-91.61963c0-46.46826-25.02338-75.43164-51.51562-106.09424
			c-26.52441-30.70068-53.95209-62.44873-53.95209-111.07812c0-69.1665,49.44531-111.97852,95.26068-111.97852
			c31.14838,0,49.86908,14.25537,60.09082,26.21436c14.43073,16.88135,21.30658,40.37256,17.94629,61.30225
			c-1.3418,8.34424-8.56842,14.28711-16.77539,14.28711c-0.89447,0-1.80078-0.0708-2.71191-0.21631
			c-9.27728-1.48291-15.5918-10.18701-14.10553-19.43799c1.47662-9.19238-1.11719-23.24561-10.24219-33.9209
			c-8.10742-9.48486-19.61621-14.2959-34.20209-14.2959c-29.45209,0-61.24017,29.84082-61.24017,78.0459
			c0,36.02686,21.18073,60.54199,45.70703,88.9292c28.00983,32.42041,59.76367,69.17236,59.76367,128.24316
			c0,33.01416-10.24512,63.75293-28.84961,86.55664c-20.51068,25.14697-50.14062,38.99561-83.4248,38.99561
			c-30.83789,0-57.08398-12.79004-73.89551-36.01221c-18.8291-26.00391-24.20508-63.24414-13.69922-94.875
			c2.36621-7.12354,9.0127-11.63623,16.14838-11.63623c1.77338,0,3.5752,0.27832,5.35059,0.86475
			c8.91498,2.94775,13.75293,12.54688,10.7959,21.44092c-7.07233,21.29492-3.46002,47.14941,8.98438,64.34082
			C398.26459,726.73206,413.84772,734.11731,434.03607,734.11731 M2317.36719,656.5304
			c0.14648-0.19043,0.28613-0.36865,0.42676-0.55859c6.22949-8.22754,12.54395-16.96338,18.88477-26.09424
			c2.88086-15.9165,5.89648-31.88525,9.04395-47.75488c15.47168-78.05518,31.49023-140.19336,47.60254-184.6958
			c22.23633-61.41357,45.06641-90.01709,71.83984-90.01709c11.58203,0,21.29199,4.98975,27.3457,14.05615
			c4.76758,7.13623,7.08398,16.33154,7.08398,28.10938c0,53.78857-50.63281,161.25146-100.81543,243.88916
			c-10.49609,17.28516-21.05762,33.69287-31.53125,49.0127c-4.74707,26.55029-9.10742,52.87598-13.05859,78.24756
			c9.49023,9.46729,19.27637,14.24072,29.32031,14.24072c27.94531,0,54.51953-54.20703,77.96973-102.02881
			c28.67383-58.48291,58.30469-118.87793,105.58789-121.79102c1.18457-0.08203,2.37207-0.1377,3.56543-0.1377
			c13.62598,0,25.56836,4.76758,34.53809,13.78711c12.88086,12.95068,19.28906,33.96191,19.05176,62.44873l-0.00293,0.9624
			c0,55.13965-29.04883,90.76855-74.00098,90.76855c-16.03906,0-29.6748-5.65674-39.58887-15.54199
			c0.20703,21.43506,4.90723,39.24365,13.64648,51.55371c9.54297,13.44238,23.59375,19.979,42.95508,19.979
			c21.19531,0,39.74414-11.90674,58.37207-37.47168c3.16309-4.33936,8.09082-6.64258,13.08691-6.64258
			c3.29492,0,6.61914,1.00146,9.48828,3.08057c7.22168,5.23486,8.81836,15.31348,3.57129,22.51416
			c-24.88965,34.15479-52.53418,50.75586-84.51855,50.75586c-29.75879,0-53.73242-11.61426-69.33301-33.58496
			c-11.41797-16.08301-18.0459-37.48584-19.36523-62.31396c-26.21094,51.97217-53.27051,95.89893-95.02344,95.89893
			c-12.41895,0-24.00293-3.20264-34.87402-9.70166c-11.23145,76.7915-18.28027,140.44824-20.46191,167.91406
			c-0.66992,8.44092-7.74414,14.8457-16.0918,14.8457c-0.42969,0-0.85938-0.01758-1.29297-0.0498
			c-8.89648-0.70459-15.54199-8.4668-14.83398-17.34033c2.41602-30.45215,10.73438-104.78125,24.0293-192.30029
			c-3.36328-4.46289-6.65332-9.35303-9.87305-14.66455c-31.64551,34.50293-57.74609,51.29688-79.70215,51.29688
			c-21.14551,0-36.40625-18.42285-45.35645-54.75977c-2.65527-10.77734-4.80469-23.19873-6.41992-36.98877
			c-7.23535,12.57324-14.24609,24.12305-20.87598,34.35059c-32.68945,50.4458-48.16992,57.39795-60.0332,57.39795
			c-12.8418,0-23.93848-5.0542-32.08984-14.61523c-14.37793-16.87549-18.15039-45.67529-16.4043-81.77783
			c-2.63281,4.90479-5.29688,9.68652-7.96484,14.30762c-31.89648,55.23633-60.16992,82.08545-86.43359,82.08545
			c-9.38281,0-17.6123-3.81396-23.16992-10.73389c-14.87207-18.52832-7.99023-53.47266,4.46875-108.95752
			c5.10156-22.71338,10.37695-46.20166,12.28418-64.9873c2.41895-23.79248-1.88379-28.72949-2.06738-28.92236
			c-0.00098,0-0.00098,0-0.00098,0c-0.02441,0-0.53613-0.17822-1.72168-0.17822c-28.61328,0-61.88477,61.9541-134.78613,197.69629
			l-4.06836,7.57471c-2.8623,5.32812-8.39355,8.50879-14.24316,8.50879c-1.30469,0-2.62598-0.1582-3.93652-0.48633
			c-7.18945-1.79834-12.22559-8.2417-12.22559-15.63232c0-16.22656,2.08301-59.10596,6.82324-111.81201
			c-3.80176,1.59961-7.47559,2.37793-11.07812,2.37793c-18.38477,0-32.25684-15.5918-41.22754-46.33936
			c-3.19043-10.92969-5.38672-22.30957-6.80566-32.75391c-7.64551,8.70996-17.29395,22.26562-27.43359,41.76221
			c-15.19141,29.21191-35.26074,78.75342-44.60156,148.88818c-1.07324,8.05273-7.9668,13.99561-16.00488,13.99561
			c-0.3584,0-0.71973-0.01172-1.08203-0.03564c-8.49316-0.56152-15.09375-7.5957-15.09375-16.08301
			c0-21.02588,0.9209-51.8291,2.61426-84.08887c-34.35059,66.49072-74.43359,100.20703-119.1416,100.20703
			c-28.47461,0-51.44824-11.36279-66.4375-32.85352c-12.26953-17.58643-18.82324-41.74463-18.95801-69.86279
			c-0.02344-5.18262,0.17578-10.46143,0.58496-15.79639c-2.02441,3.33398-4.0127,6.61279-5.95215,9.8125
			c-36.78125,60.73193-65.83789,108.7002-99.76172,108.7002c-23.58496,0-29.26758-33.0376-31.40527-45.47656
			c-2.22656-12.95361-3.79395-29.10693-4.64746-47.68457c-8.04297,13.46826-15.84961,25.94238-23.21094,37.06787
			c-34.25391,51.76172-46.64941,56.09326-56.41211,56.09326c-13.29883,0-24.67871-5.40527-32.91211-15.62402
			c-8.8584-11-14.00879-27.45703-15.43945-50.32568c-20.51367,38.98047-45.76562,65.94971-77.52832,65.94971
			c-14.28711,0-26.46582-5.72119-35.21875-16.53955c-12.58301-15.55078-17.06348-40.31152-16.58105-70.30713
			c-5.48926,8.79443-11.29785,17.32617-17.39844,25.53271c-7.61035,10.23633-46.94238,61.31396-73.69727,61.31396
			c-9.7041,0-17.91992-3.75244-23.75488-10.854c-15.39844-18.74707-9.29199-53.96094,1.94531-109.86377
			c4.41895-21.97656,8.9873-44.69873,10.64551-63.29688c2.15332-24.18457-1.62012-30.86182-2.82812-32.33252
			c-0.20996-0.25488-0.53809-0.65527-1.99121-0.78418c-3.84082,1.8457-23.7168,15.10352-80.21973,106.26953
			c-31.89648,51.46924-59.43262,101.93555-59.70801,102.43848c-2.87793,5.28271-8.38379,8.42383-14.19824,8.42383
			c-1.3584,0-2.7334-0.17188-4.0957-0.52734c-7.19434-1.88037-12.17285-8.41406-12.06445-15.82812
			c0.00879-0.51514,0.40625-25.39844,2.29297-62.86133c-6.08301,8.33838-12.09375,16.07422-17.99316,23.14941
			c-31.46393,37.72559-58.88281,56.06689-83.81641,56.06689c-27.4248,0-49.69342-11.12012-64.39941-32.16016
			c-12.16602-17.40234-18.59473-41.02832-18.59473-68.31885c0-33.37402,9.95508-69.854,26.62891-97.58008
			c19.91498-33.11377,47.18158-51.34912,76.77728-51.34912c36.83978,0,49.88666,36.50635,50.18158,53.15967
			c0.1582,8.8999-6.94818,16.24365-15.87207,16.40186c-0.08398,0.00098-0.16699,0.00146-0.25098,0.00146
			c-8.82422,0-16.03522-7.01416-16.19427-15.83008c-0.02643-0.40381-2.50677-21.49707-17.86432-21.49707
			c-32.87109,0-71.08588,50.9751-71.08588,116.69336c0,20.37061,4.54303,38.08594,12.78711,49.88428
			c8.63672,12.35107,21.0293,18.3584,37.88672,18.3584c18.99017,0,56.28027-29.73291,105.92474-111.61914
			c2.16113-27.84619,5.0332-58.00586,8.8418-88.06299c8.00781-63.18262,18.56543-113.73926,31.37598-150.27197
			c18.31152-52.21777,41.73242-77.60156,71.59961-77.60156c7.02832,0,29.9668,2.91895,29.9668,40.46338
			c0,47.28662-35.51172,147.2627-86.34961,243.12598c-7.87012,14.83691-15.8252,29.00146-23.78613,42.37305
			c-1.40137,18.92334-2.47168,36.62061-3.28418,52.25342c9.36133-15.98975,20.05762-33.85986,31.17383-51.65381
			c66.98535-107.20264,88.45215-116.17822,103.31348-116.17822c14.58203,0,23.2832,6.86719,28.01855,12.62891
			c18.86426,22.96484,9.59863,69.04346-1.12598,122.39941c-4.15039,20.64551-8.07227,40.14746-9.73633,56.31836
			c-1.58887,15.47168-0.4248,22.38574,0.43262,25.16699c18.14746-8.92041,86.33203-78.77441,109.52148-183.51123
			c1.66797-7.52002,8.34668-12.64795,15.76465-12.64746c1.14258,0.00049,2.30371,0.12207,3.46582,0.37549
			c8.70703,1.89795,14.23145,10.46436,12.34766,19.15088c-4.58887,21.19531-13.1377,60.6499-16.60645,96.8667
			c-4.94238,51.57129,2.73828,69.67236,7.75391,75.87598c2.61426,3.22852,5.53027,4.54785,10.06934,4.54785
			c16.34082,0,34.35352-19.08984,52.09863-55.20117c15.09961-30.7417,29.6709-73.12988,44.54297-129.58838
			c1.9043-7.22461,8.43945-12.02637,15.61719-12.02588c1.25684,0,2.53613,0.14795,3.81152,0.45557
			c8.55469,2.06201,13.88086,10.57275,11.98242,19.14551c-28.10352,126.85938-18.25586,163.24268-9.88477,173.64014
			c1.50293,1.86914,3.05859,2.90723,5.12988,3.3374c10.8623-8.5874,41.64746-51.39648,81.90332-125.3916
			c1.85742-61.75537,9.2832-128.04688,20.29785-179.01318c17.87891-82.70801,43.16309-122.91406,77.29688-122.91406
			c12.18164,0,22.34766,5.29639,28.62402,14.91309c4.91406,7.53125,7.30371,17.30273,7.30371,29.87012
			c0,65.66016-68.3623,202.43115-89.31543,242.78369c-4.01562,7.73877-8.06348,15.39258-12.12012,22.91797
			c-1.41211,61.73779,3.4834,101.76855,8.75391,115.52344c4.29688-2.36328,11.73145-8.29736,23.14648-23.09619
			c13.88672-18.00195,28.74121-42.52246,44.4668-68.48828c34.62891-57.16943,67.62891-111.62207,104.97754-126.69873
			c1.09668-0.45361,2.19629-0.87158,3.29883-1.24902l0.14941-0.0498c1.2832-0.43555,2.57324-0.81006,3.86328-1.14355
			c0.12012-0.03174,0.2373-0.06396,0.35352-0.09326c2.60645-0.65527,5.23535-1.1084,7.87988-1.35449
			c0.27734-0.02588,0.55566-0.04932,0.83301-0.06982c1.29004-0.09961,2.58008-0.16699,3.875-0.16699
			c13.62695,0,25.56836,4.76758,34.53809,13.78711c12.87793,12.95068,19.28906,33.96191,19.05469,62.44873l-0.00879,0.9624
			c0,55.13965-29.04492,90.76855-73.99805,90.76855c-15.96875,0-29.55176-5.604-39.45703-15.41064
			c0,0.25439-0.00879,0.51221-0.00879,0.7666c0.10449,21.56104,4.65625,39.4043,13.16699,51.60938
			c8.92871,12.80127,21.98535,19.02539,39.90723,19.02539c64.06641,0,113.18359-120.4165,130.38086-189.00098
			c1.25195-7.06348,2.57715-12.88086,3.9668-17.09229c2.22852-6.74756,8.52539-11.08301,15.3457-11.08252
			c1.36914,0,2.75879,0.17432,4.1416,0.53906c8.27051,2.18457,13.40039,10.41797,11.7041,18.7793
			c-0.84473,4.16797-2.06152,9.47314-3.64648,15.66504c-2.36621,13.53271-4.5625,33.21289-6.45215,55.5376
			c24.78418-55.44678,55.52246-90.51709,79.31531-90.51709c8.92578,0,16.15918,7.21533,16.15918,16.11816
			c0,10.40283,1.63184,28.98389,6.22949,47.1084c4.42773,17.45166,9.30957,25.19922,11.79199,27.75244
			c3.13867-1.94189,8.42383-6.83789,15.49512-15.35205c2.83691-25.76953,6.25293-52.59521,10.30078-78.90869
			c8.88574-57.79541,19.37695-103.95312,31.17773-137.18945c16.70312-47.04736,36.96582-69.9126,61.94531-69.9126
			c12.42188,0,22.79004,5.39307,29.18945,15.18506c5.00391,7.65674,7.43457,17.5542,7.43457,30.24756
			c0,43.84717-30.41992,117.71973-58.88672,172.2334c-15.91309,30.47266-32.87109,58.22559-47.75488,78.14551
			c-0.77148,1.03564-1.53809,2.04736-2.29883,3.03906c-2.83984,26.79053-5.0332,52.13574-6.6416,74.16504
			c25.39844-46.83057,44.5957-80.81006,61.43066-105.45068c19.08398-27.93701,41.00977-53.78857,71.96289-53.78857
			c14.14355,0,22.51074,6.72656,27.04199,12.36865c18.1123,22.55811,7.86719,68.17822-3.99512,121.00146
			c-4.52539,20.15137-8.80078,39.18213-10.88379,55.06055c-2.02051,15.40723-1.12598,22.37695-0.39746,25.18164
			c8.61621-1.70215,28.67383-16.94873,56.86816-65.771c24.70215-42.771,43.8623-90.64844,51.89941-119.12354
			c1.99512-7.07031,8.44727-11.75244,15.54102-11.75244c1.14062,0,2.29688,0.12061,3.45508,0.37256
			c8.35254,1.81299,13.8457,9.80322,12.5293,18.22949c-0.89453,5.70898-1.90723,11.9126-2.98633,18.48438
			c-7.15039,43.7041-22.03125,134.64795-3.43652,156.46924c1.45703,1.70508,3.0918,2.91602,6.06641,3.19385
			c9.20703-5.13867,36.15234-39.08887,76.01562-115.16064c0.90723-1.7373,1.81934-3.4834,2.72656-5.23242
			c-0.02637-2.62646-0.04395-5.27637-0.04395-7.94922c0-65.99072,8.34082-137.78369,22.30957-192.05176
			c18.29395-71.06494,44.30371-107.09717,77.30566-107.09717c10.8418,0,20.12793,5.37256,25.47168,14.74365
			c3.83398,6.71777,5.69727,15.35449,5.69727,26.4043c0,52.32324-42.83496,159.61035-82.92188,242.56982
			c-5.09473,10.54102-10.23047,20.87402-15.36328,30.90576c0.25195,11.70166,0.79297,22.95898,1.64062,33.56982
			c4.95215,62.12109,18.05469,78.40869,21.29199,79.37109c10.77441-0.00586,32.50293-13.6499,63.82324-49.82861
			c-4.99805-11.27783-9.83301-23.73096-14.52148-37.44775c-2.88086-8.42627,1.63281-17.5835,10.08203-20.45557
			c1.72754-0.58789,3.48535-0.8667,5.21484-0.8667c6.72461,0.00049,13.00488,4.21973,15.2959,10.92188
			C2312.66406,644.06213,2315.00391,650.46155,2317.36719,656.5304"/>
	</g>
</g>
<g id="b-02">
</g>
<g id="b-01">
</g>
<g id="a-04">
</g>
<g id="a-03">
</g>
<g id="a-02">
</g>
<g id="a-01">
</g>
</svg>
